<?xml version="1.0" encoding="UTF-8" standalone="no"?>
<svg
   xmlns:osb="http://www.openswatchbook.org/uri/2009/osb"
   xmlns:dc="http://purl.org/dc/elements/1.1/"
   xmlns:cc="http://creativecommons.org/ns#"
   xmlns:rdf="http://www.w3.org/1999/02/22-rdf-syntax-ns#"
   xmlns:svg="http://www.w3.org/2000/svg"
   xmlns="http://www.w3.org/2000/svg"
   xmlns:xlink="http://www.w3.org/1999/xlink"
   xmlns:sodipodi="http://sodipodi.sourceforge.net/DTD/sodipodi-0.dtd"
   xmlns:inkscape="http://www.inkscape.org/namespaces/inkscape"
   id="svg8"
   version="1.1"
   viewBox="0 0 186.40051 155.7177"
   height="155.71771mm"
   width="186.40051mm"
   sodipodi:docname="Comet_pizza_neo_2.svg"
   inkscape:version="0.92.2 (5c3e80d, 2017-08-06)">
  <sodipodi:namedview
     pagecolor="#ffffff"
     bordercolor="#666666"
     borderopacity="1"
     objecttolerance="10"
     gridtolerance="10"
     guidetolerance="10"
     inkscape:pageopacity="0"
     inkscape:pageshadow="2"
     inkscape:window-width="1600"
     inkscape:window-height="837"
     id="namedview26"
     showgrid="false"
     inkscape:zoom="0.65762172"
     inkscape:cx="-22.663987"
     inkscape:cy="308.80617"
     inkscape:window-x="-8"
     inkscape:window-y="-8"
     inkscape:window-maximized="1"
     inkscape:current-layer="svg8" />
  <defs
     id="defs2">
    <linearGradient
       osb:paint="solid"
       id="linearGradient2439">
      <stop
         id="stop2437"
         offset="0"
         style="stop-color:#f2f2f2;stop-opacity:1;" />
    </linearGradient>
    <linearGradient
       gradientUnits="userSpaceOnUse"
       y2="524.92578"
       x2="690.03778"
       y1="524.92578"
       x1="94.403633"
       id="linearGradient2441"
       xlink:href="#linearGradient2439" />
  </defs>
  <metadata
     id="metadata5">
    <rdf:RDF>
      <cc:Work
         rdf:about="">
        <dc:format>image/svg+xml</dc:format>
        <dc:type
           rdf:resource="http://purl.org/dc/dcmitype/StillImage" />
        <dc:title />
      </cc:Work>
    </rdf:RDF>
  </metadata>
  <g
     transform="translate(1.2721332,-73.57535)"
     style="display:none"
     id="layer4">
    <path
       id="path925"
       d="M 124.74826,78.426 C 108.53949,74.124412 82.986748,69.373411 61.62927,67.896713 40.271793,66.420016 23.1095,68.217692 3.4264485,64.695298 -16.256603,61.172903 -38.547775,52.2955 -51.260614,47.030869 c -12.712838,-5.264631 -15.89102,-6.933892 -12.140593,-4.108862 3.750427,2.825029 14.428848,10.143908 29.938463,17.591412 15.509615,7.447504 35.8502209,15.023468 49.739179,22.567555 13.888959,7.544087 21.452497,15.183625 18.401512,17.045536 C 31.626963,101.98841 18.024259,98.136247 1.1160727,92.165342 -15.792114,86.194436 -36.005213,78.104998 -46.251632,73.778057 c -10.246418,-4.326941 -10.475652,-4.790014 -4.756066,-0.810263 5.719586,3.979752 17.417826,12.456293 30.130635,20.096413 12.7128093,7.640123 26.4427059,14.445643 33.625375,21.700373 7.182669,7.25472 7.818315,14.95912 4.195185,18.87561 -3.623131,3.91648 -11.504821,4.04489 -22.5017506,-0.57785 C -16.555183,128.4396 -30.66591,119.06633 -41.535354,112.45345 -52.404799,105.84056 -60.03246,101.98841 -63.909919,99.998096 c -3.877458,-1.990312 -4.004585,-2.118715 -1.080636,0.706204 2.923948,2.82493 8.898975,8.60318 20.404076,17.84837 11.5051,9.2452 28.540281,21.95736 42.8421468,34.60526 14.3018662,12.6479 25.8705542,25.23167 35.5958582,35.56831 9.725303,10.33665 17.607237,18.42619 25.552801,24.52548 7.945563,6.09929 15.954619,10.20825 23.773055,12.96897 7.818435,2.76071 15.445817,4.17311 23.010128,4.2373 7.56432,0.0642 15.06461,-1.21983 23.01025,-3.21016 7.94565,-1.99033 16.33584,-4.68676 24.28144,-10.46514 7.94561,-5.77838 15.44592,-14.63807 20.65822,-24.01183 5.2123,-9.37375 8.13616,-19.26067 9.59813,-28.5702 1.46197,-9.30952 1.46197,-18.04092 -3e-5,-26.1947 -1.46201,-8.15377 -4.38594,-15.72966 -9.47105,-23.56235 -5.08511,-7.83268 -12.3315,-15.922323 -19.38701,-21.893092 -7.05552,-5.970769 -13.92043,-9.822931 -30.1292,-14.124518 z"
       style="display:inline;fill:#cccccc;fill-opacity:1;stroke:#000000;stroke-width:1;stroke-linecap:butt;stroke-linejoin:miter;stroke-miterlimit:4;stroke-dasharray:none;stroke-opacity:1"
       inkscape:connector-curvature="0" />
  </g>
  <g
     style="display:inline;fill:#c87137;stroke:#ffffff;stroke-width:2.71991658;stroke-miterlimit:4;stroke-dasharray:none;stroke-opacity:1;paint-order:fill markers stroke"
     id="layer5"
     transform="translate(-66.249944,-32.516542)">
    <path
       id="path949"
       d="m 47.624997,199.98608 c -7.685594,-8.94553 -14.993098,-20.41075 -22.237604,-29.9231 -7.244506,-9.51235 -14.426094,-17.07192 -19.2767437,-21.6076 -4.8506492,-4.53569 -7.3704924,-6.0476 -5.29157018,-5.92161 2.07892218,0.126 8.75650228,1.88988 14.17422488,1.63779 5.417723,-0.2521 9.575458,-2.51995 11.843171,-6.23677 2.267712,-3.71683 2.645688,-8.8825 1.351566,-13.75164 -1.294122,-4.86914 -4.375585,-9.61973 -6.643387,-12.51749 -2.267803,-2.89776 -3.779732,-4.0317 -2.582692,-3.96868 1.19704,0.063 5.102682,1.32291 9.260394,1.70085 4.157711,0.37795 8.567617,-0.12604 11.465439,-0.88209 2.897822,-0.75604 4.283732,-1.76397 5.039543,-3.52789 0.75581,-1.76392 0.881803,-4.28376 0.251809,-7.559494 C 44.349154,94.152624 42.96324,90.120875 36.726721,85.648261 30.490202,81.175648 19.403286,76.262128 23.561218,75.191147 c 4.157932,-1.070981 23.56003,1.700747 37.545192,2.393664 13.985163,0.692916 22.552619,-0.692995 30.080646,-1.207425 7.528028,-0.514429 14.016664,-0.157436 23.781024,1.417478 9.76435,1.574915 22.80443,4.367714 33.92315,11.181772 11.11871,6.814058 20.31609,17.649334 26.3007,28.610564 5.98461,10.96123 8.75644,22.04853 8.56751,34.2067 -0.18893,12.15817 -3.31725,25.29711 -9.3426,36.77718 -6.02535,11.48006 -14.78464,20.99015 -26.18689,27.85681 -11.40225,6.86666 -25.38738,11.0244 -38.61661,11.46544 -13.229224,0.44105 -25.702443,-2.83475 -35.970871,-7.68545 -10.268428,-4.85071 -18.331878,-11.27627 -26.017472,-20.2218 z"
       style="display:inline;fill:#c87137;fill-opacity:1;stroke:#ffffff;stroke-width:2.71991658;stroke-linecap:round;stroke-linejoin:miter;stroke-miterlimit:4;stroke-dasharray:none;stroke-opacity:1;paint-order:fill markers stroke"
       transform="translate(67.522077,-41.058809)"
       inkscape:connector-curvature="0" />
  </g>
  <g
     transform="translate(1.2721332,-73.57535)"
     style="display:inline;fill:#e32700;fill-opacity:1"
     id="layer1">
    <circle
       style="fill:#e32700;fill-opacity:1;stroke:none;stroke-width:2;stroke-miterlimit:4;stroke-dasharray:none;stroke-opacity:1"
       r="70.425522"
       cy="152.80807"
       cx="107.57598"
       id="path3699" />
    <ellipse
       ry="8.9535294"
       rx="8.15172"
       cy="144.25546"
       cx="118.80131"
       id="path8212"
       style="opacity:0;fill:#e32700;fill-opacity:1;stroke:#000000;stroke-width:2;stroke-miterlimit:4;stroke-dasharray:none;stroke-opacity:1" />
  </g>
  <g
     transform="matrix(1.0823459,0,0,1.0497976,-12.286323,-83.166711)"
     style="display:inline"
     id="layer3">
    <ellipse
       ry="15.367997"
       rx="18.842501"
       cy="118.33031"
       cx="114.52499"
       id="path8258"
       style="opacity:0;fill:#d42aff;fill-opacity:0.93431373;stroke:#000000;stroke-width:1;stroke-miterlimit:4;stroke-dasharray:none;stroke-opacity:1" />
    <path
       d="m 120.40461,117.43088 a 12.160764,12.160764 0 0 1 -2.1768,-17.05313 12.160764,12.160764 0 0 1 17.0515,-2.189526 12.160764,12.160764 0 0 1 2.20225,17.049866 12.160764,12.160764 0 0 1 -17.04822,2.21497"
       id="path889"
       style="opacity:0.95999995;fill:#cccccc;fill-opacity:1;stroke:none;stroke-width:1;stroke-miterlimit:4;stroke-dasharray:none;stroke-opacity:1"
       inkscape:connector-curvature="0" />
    <path
       d="m 156.89648,142.889 a 4.8108511,4.8108511 0 0 1 -0.86115,-6.74629 4.8108511,4.8108511 0 0 1 6.74565,-0.86618 4.8108511,4.8108511 0 0 1 0.87121,6.745 4.8108511,4.8108511 0 0 1 -6.74434,0.87625"
       id="path891"
       style="opacity:0.95999995;fill:#ececec;fill-opacity:1;stroke:none;stroke-width:1;stroke-miterlimit:4;stroke-dasharray:none;stroke-opacity:1"
       inkscape:connector-curvature="0" />
    <path
       d="m 55.734481,166.5029 a 8.9155407,8.9155407 0 0 1 -1.595902,-12.50233 8.9155407,8.9155407 0 0 1 12.501134,-1.60523 8.9155407,8.9155407 0 0 1 1.614557,12.49993 8.9155407,8.9155407 0 0 1 -12.498724,1.62388"
       id="path893"
       style="opacity:0.95999995;fill:#e6e6e6;fill-opacity:1;stroke:none;stroke-width:0.70227087;stroke-miterlimit:4;stroke-dasharray:none;stroke-opacity:1"
       inkscape:connector-curvature="0" />
  </g>
  <g
     transform="translate(2.0768006,-69.954348)"
     style="display:inline;stroke:none"
     id="layer2">
    <text
       xml:space="preserve"
       style="font-style:normal;font-variant:normal;font-weight:normal;font-stretch:normal;font-size:30.83376122px;line-height:1.25;font-family:'Eras Medium ITC';-inkscape-font-specification:'Eras Medium ITC, Normal';font-variant-ligatures:normal;font-variant-caps:normal;font-variant-numeric:normal;font-feature-settings:normal;text-align:start;letter-spacing:0px;word-spacing:0px;writing-mode:lr-tb;text-anchor:start;display:inline;fill:#000000;fill-opacity:1;stroke:none;stroke-width:1.32291663;stroke-miterlimit:4;stroke-dasharray:none;stroke-opacity:1;paint-order:markers fill stroke"
       x="126.3625"
       y="123.22605"
       id="text4524-2"
       transform="rotate(25)"><tspan
         sodipodi:role="line"
         id="tspan4522-1"
         x="126.3625"
         y="123.22605"
         style="font-style:normal;font-variant:normal;font-weight:bold;font-stretch:normal;font-size:32.45555496px;font-family:sans-serif;-inkscape-font-specification:'sans-serif, Bold';font-variant-ligatures:normal;font-variant-caps:normal;font-variant-numeric:normal;font-feature-settings:normal;text-align:start;writing-mode:lr-tb;text-anchor:start;fill:#ffffff;stroke:none;stroke-width:1.32291663;stroke-miterlimit:4;stroke-dasharray:none;paint-order:markers fill stroke">Pizza</tspan></text>
    <text
       id="text4551"
       y="89.462326"
       x="97.257233"
       style="font-style:normal;font-variant:normal;font-weight:normal;font-stretch:normal;font-size:30.83376122px;line-height:1.25;font-family:'Eras Medium ITC';-inkscape-font-specification:'Eras Medium ITC, Normal';font-variant-ligatures:normal;font-variant-caps:normal;font-variant-numeric:normal;font-feature-settings:normal;text-align:start;letter-spacing:0px;word-spacing:0px;writing-mode:lr-tb;text-anchor:start;display:inline;fill:#000000;fill-opacity:1;stroke:none;stroke-width:1.32291663;stroke-miterlimit:4;stroke-dasharray:none;stroke-opacity:1;paint-order:markers fill stroke"
       xml:space="preserve"
       transform="rotate(25)"><tspan
         style="font-style:normal;font-variant:normal;font-weight:bold;font-stretch:normal;font-size:32.45555496px;font-family:sans-serif;-inkscape-font-specification:'sans-serif, Bold';font-variant-ligatures:normal;font-variant-caps:normal;font-variant-numeric:normal;font-feature-settings:normal;text-align:start;writing-mode:lr-tb;text-anchor:start;fill:#ffffff;stroke:none;stroke-width:1.32291663;stroke-miterlimit:4;stroke-dasharray:none;paint-order:markers fill stroke"
         y="89.462326"
         x="97.257233"
         id="tspan4549"
         sodipodi:role="line">Comet</tspan></text>
  </g>
</svg>
